<svg id="Layer_1" data-name="Layer 1" xmlns="http://www.w3.org/2000/svg" viewBox="270 370 550 330"><defs><style>.cls-1{fill:#2a3840;}</style></defs><path class="cls-1" d="M323.34,395.08s29.72-4.24,40.76,14.44,45,76.44,104.47,74.74,113-17,160.52-51c6.8-18.68,12.74-25.12,38.64-30.82s106.06-15.87,138.18-7.81c8.33,3.81-4.41,16.55-27.34,16.55s-70.49,5.1-84.93,16.14-62,61.15-108.71,73.89-144.39,28.88-187.7-16.14S331.83,393.39,323.34,395.08Z"/><path class="cls-1" d="M271.53,600.62s34-34.82,43.31-51,17.84-31.43,33.13-11,15.28,42.46-12.74,44.16S271.53,600.62,271.53,600.62Z"/><path class="cls-1" d="M451.58,687.25s8.5-22.93,22.09-28,15.28-20.38,17-35.67,5.1-35.29,0-41.42-16.84-17.52-18.19-7.58-2.19,16.73-4.74,30.32S449,660.92,449,677.06,451.58,687.25,451.58,687.25Z"/><path class="cls-1" d="M623.15,676.21s9.34-17.84,6.79-34S624,618.45,619.75,610s-19.54-25.48-33.12-25.48-11.9,8.49-6,14.44,17,4.25,17,15.29-1.7,18.68,7.64,33.12S615.5,675.36,623.15,676.21Z"/><path class="cls-1" d="M682.6,546.26c0,1.7,36.52,68.8,48.41,67.1s10.19-16.14,5.09-27.18-28.87-43.31-35.67-43.31-11.89-11-19.53-9.35S682.6,546.26,682.6,546.26Z"/></svg>