<svg id="Layer_1" data-name="Layer 1" xmlns="http://www.w3.org/2000/svg" viewBox="270 290 540 510"><defs><style>.cls-1{fill:#64a1bc;}</style></defs><path class="cls-1" d="M311.54,294s17.47,3.75,28.71,2.5,23.19.51,30.94.25,29.21,0,36.1-1.36S426.84,294,433.61,294s69.79-6.2,85.09-4.35,82.68,15.59,105.15,18.08,72.39-5,79.87-2.49,65.74-14.17,73.06-6.46,14.82,13.94,16.06,22.68,2.5,5,6.24,20,5.11,23.12,5.11,31.85-11.35,6.38-23.83,8.88-85.58,5-109.81,0-69.17-4.65-79.15-4.65-20,1.24-26.21,0S539,375,525.25,375s-31.2-2.5-54.91,2.5-31.2,5-37.44,5S411.68,385,398,383.78s-92.77,5-109-7.49-6.24-29.84-8.61-63.54C280,307.19,279.09,289,311.54,294Z"/><path class="cls-1" d="M303.38,407.66s22.46,5,32.45,5,95.16,15,113.89,13.73,84.26-1.87,114.21,9.36,42.44,7.94,58.66,11.69S662.53,462,670,465.69s44.93,3.75,56.16,2.5,44.45-5,53.19-2.5,24.82-2.48,25,17.48c.09,12.48,1.32,44.73-7.46,44.73S757.35,525,738.32,525c-14,0-35.85-5.16-44.59-5.16s-38.69-2.49-56.16-5-32.45-1.25-41.19-3.74-33.46-15.75-40.28-16.85c-46.17-7.49-122-4.37-135.69-6.87s-51.17,0-61.16,0-66.94-3.52-77.18-2.49c-12.49,1.25-3-55.37-4.28-64.1S276.54,402,303.38,407.66Z"/><path class="cls-1" d="M287.33,610.3s20,2.49,27.46,3.74,38.69,3.75,48.67,2.5,189.71-12.48,223.4-16.23,50.55-.62,61.78-3.12,37.44-1.25,78.63,2.5,69.89,7.49,73.63,0,4.67-25,2.18-33.7c-2.2-7.68-19.65-1.25-38.37-2.49s-71.14,1.24-93.6,3.74-22.47,2.5-26.21,1.25-6.76-8.15-29-5.33-98.33-.91-120.8,1.58-81.12,2.5-96.1,2.5-61.15-7.49-77.38-7.49-42.75-5-42.75,5C278.9,578.7,272.66,608.43,287.33,610.3Z"/><path class="cls-1" d="M458.5,757.57S486,800,543.37,788.77s80.5-26.83,91.73-56.79c0,0,25-54.05,0-83.19-17.78-20.76-63-57.54-116.3-48.39-43.63,7.48-76.37,43.52-82.16,87.4C433.88,708.72,437.76,731.39,458.5,757.57Z"/></svg>