<svg id="Layer_1" data-name="Layer 1" xmlns="http://www.w3.org/2000/svg" viewBox="110 175 860 85"><defs><style>.cls-1{fill:#fff;}</style></defs><path class="cls-1" d="M166.57,220.52a26.19,26.19,0,0,0-6.82-13.94,21.16,21.16,0,0,0-6-4.44,16.25,16.25,0,0,0-7.29-1.66,15.39,15.39,0,0,0-8.62,2.3,18.11,18.11,0,0,0-5.62,5.84,25,25,0,0,0-3,7.89,41.6,41.6,0,0,0-.9,8.44,31.66,31.66,0,0,0,1.45,9.76,22.23,22.23,0,0,0,4.27,7.76,18.9,18.9,0,0,0,7,5.12,24.73,24.73,0,0,0,9.85,1.84,21.12,21.12,0,0,0,7.29-1.2,23.4,23.4,0,0,0,5.88-3.07,25.82,25.82,0,0,0,4.61-4.22,51.54,51.54,0,0,0,3.54-4.64l2,2.13a36.12,36.12,0,0,1-12,12.71,31.25,31.25,0,0,1-16.8,4.42,32.28,32.28,0,0,1-11.77-2.08,27.28,27.28,0,0,1-9.29-5.93,27,27,0,0,1-6.14-9.25A31.82,31.82,0,0,1,116,226.14a30.44,30.44,0,0,1,2.31-12.06,26.8,26.8,0,0,1,6.39-9.25,28.91,28.91,0,0,1,9.81-6A35.59,35.59,0,0,1,147,196.73a40.48,40.48,0,0,1,5.63.47q3.24.47,6.23,1.06l5.37,1.07a24.48,24.48,0,0,0,2.73.47,3.25,3.25,0,0,0,.94-.09c0,1.14,0,2.24-.09,3.29s-.08,2.14-.08,3.28q0,3.58.25,7.12t.68,7.12Z"/><path class="cls-1" d="M197.78,252.16a12.6,12.6,0,0,0,4-1,7.83,7.83,0,0,0,2.64-1.92,13.08,13.08,0,0,0,1.88-2.77c.54-1.05,1.09-2.26,1.66-3.62l16.72-39-1.54-4.1c1.83-.33,3.62-.75,5.38-1.23a35,35,0,0,0,5.12-1.83L252.09,247a6.91,6.91,0,0,0,3.59,4,11.72,11.72,0,0,0,5.2,1.24v2.05l-3.67-.18c-1.37,0-2.73-.1-4.09-.12s-2.73,0-4.1,0h-3.58q-3.58,0-7.12.08t-7.12.26v-2a17.91,17.91,0,0,0,6.57-1.45,3.56,3.56,0,0,0,2.13-3.33,8.43,8.43,0,0,0-.3-2,24.16,24.16,0,0,0-.76-2.43l-.94-2.48c-.31-.82-.59-1.52-.81-2.08l-2.9-8.45h-17l-4.35,12c-.29.79-.58,1.56-.9,2.3a7.3,7.3,0,0,0-.46,2.81,2.81,2.81,0,0,0,.72,1.88,6.75,6.75,0,0,0,1.87,1.49,14.16,14.16,0,0,0,2.48,1.07,15.75,15.75,0,0,0,2.43.59v2.05c-1.82-.11-3.66-.2-5.5-.26s-3.68-.08-5.5-.08-3.41,0-5.12.08-3.41.14-5.11.26ZM233,226.75l-7-19.95h-.17l-7.43,19.95Z"/><path class="cls-1" d="M328.42,214.91a18.79,18.79,0,0,0-2.77-5.89,24,24,0,0,0-4.44-4.77,20.91,20.91,0,0,0-5.5-3.24,16.31,16.31,0,0,0-6-1.2,10.61,10.61,0,0,0-6.53,2,7,7,0,0,0-2.68,6,6.66,6.66,0,0,0,2.43,5.2,26.38,26.38,0,0,0,6.09,3.88q3.67,1.76,7.89,3.54a45.12,45.12,0,0,1,7.89,4.31,23.69,23.69,0,0,1,6.09,6,14.88,14.88,0,0,1,2.43,8.7,15.12,15.12,0,0,1-1.44,6.65,14.48,14.48,0,0,1-4.1,5.07,19.19,19.19,0,0,1-6.4,3.25,28.63,28.63,0,0,1-8.35,1.14,23.7,23.7,0,0,1-4.27-.38c-1.42-.25-2.82-.54-4.22-.86s-2.8-.59-4.22-.85a24.53,24.53,0,0,0-4.26-.38,3.94,3.94,0,0,0-.9.13c-.37.08-.76.18-1.19.29l-1.24.35a4.9,4.9,0,0,0-.94.34q-.67-4.78-1.45-9.64t-2-9.8h1.87a22.07,22.07,0,0,0,3.07,6.22,28.32,28.32,0,0,0,5,5.5,24.48,24.48,0,0,0,6.18,3.88,16.31,16.31,0,0,0,6.57,1.45,28.55,28.55,0,0,0,5.11-.42,12.07,12.07,0,0,0,4-1.41,6.83,6.83,0,0,0,2.56-2.64,9,9,0,0,0,.89-4.22,7.74,7.74,0,0,0-2.47-5.85A27,27,0,0,0,314.9,233q-3.72-1.92-8-3.71a55.7,55.7,0,0,1-8-4.09,23.56,23.56,0,0,1-6.18-5.46,12.2,12.2,0,0,1-2.48-7.76q0-8,4.87-11.64t14.75-3.63a30.6,30.6,0,0,1,4.94.39c1.6.25,3.1.55,4.52.9s2.76.64,4,.89a17.22,17.22,0,0,0,3.5.38h3.07c-.06,1-.12,1.88-.18,2.74s-.08,1.73-.08,2.64c0,1.65.07,3.35.21,5.11s.27,3.47.38,5.12Z"/><path class="cls-1" d="M361.07,252.18a12.94,12.94,0,0,0,4-1,8.1,8.1,0,0,0,2.64-1.92,13.34,13.34,0,0,0,1.88-2.77c.54-1.06,1.09-2.26,1.66-3.62l16.72-39-1.54-4.09c1.83-.34,3.61-.75,5.38-1.23a36.14,36.14,0,0,0,5.11-1.84L415.39,247a7,7,0,0,0,3.58,4,11.92,11.92,0,0,0,5.2,1.24v2c-1.07-.06-2.3-.11-3.66-.17s-2.73-.1-4.1-.13-2.72,0-4.09,0h-3.58q-3.58,0-7.12.08t-7.12.26v-2a17.8,17.8,0,0,0,6.57-1.45,3.55,3.55,0,0,0,2.13-3.32,8.28,8.28,0,0,0-.3-2,22.77,22.77,0,0,0-.77-2.44l-.93-2.47-.81-2.09-2.9-8.44h-17l-4.36,12c-.28.8-.58,1.57-.89,2.3a7.34,7.34,0,0,0-.47,2.82,2.82,2.82,0,0,0,.73,1.88,6.94,6.94,0,0,0,1.87,1.49,15.21,15.21,0,0,0,2.47,1.07,16.32,16.32,0,0,0,2.43.59v2c-1.81-.12-3.65-.21-5.5-.26s-3.68-.09-5.49-.09-3.42,0-5.12.09-3.41.14-5.12.26Zm35.22-25.41-7-20h-.17l-7.42,20Z"/><path class="cls-1" d="M592,214.94a18.79,18.79,0,0,0-2.77-5.89,23.46,23.46,0,0,0-4.44-4.77,20.58,20.58,0,0,0-5.49-3.24,16.16,16.16,0,0,0-6.06-1.2,10.56,10.56,0,0,0-6.52,2,7,7,0,0,0-2.69,6,6.67,6.67,0,0,0,2.43,5.2,26.24,26.24,0,0,0,6.1,3.88c2.44,1.17,5.07,2.34,7.89,3.54a44.38,44.38,0,0,1,7.88,4.31,23.41,23.41,0,0,1,6.1,6,14.88,14.88,0,0,1,2.43,8.7,15.12,15.12,0,0,1-1.45,6.65,14.56,14.56,0,0,1-4.09,5.07,19.37,19.37,0,0,1-6.4,3.24,28.4,28.4,0,0,1-8.36,1.15,23.59,23.59,0,0,1-4.26-.38c-1.43-.26-2.83-.54-4.22-.86s-2.8-.59-4.22-.85a23.7,23.7,0,0,0-4.27-.38,4.47,4.47,0,0,0-.89.12l-1.2.3-1.23.34a5.58,5.58,0,0,0-.94.35c-.45-3.19-.94-6.4-1.45-9.64s-1.16-6.51-2-9.81h1.87a22,22,0,0,0,3.07,6.23,28.38,28.38,0,0,0,5,5.5,24.89,24.89,0,0,0,6.17,3.88,16.31,16.31,0,0,0,6.57,1.45,27.72,27.72,0,0,0,5.12-.43,12.09,12.09,0,0,0,4-1.4,6.83,6.83,0,0,0,2.56-2.64,8.84,8.84,0,0,0,.89-4.23,7.75,7.75,0,0,0-2.46-5.84,26.9,26.9,0,0,0-6.19-4.26q-3.71-1.92-8-3.71a55.86,55.86,0,0,1-8-4.1,23.36,23.36,0,0,1-6.18-5.46,12.18,12.18,0,0,1-2.47-7.76q0-8,4.86-11.63t14.75-3.63a30.64,30.64,0,0,1,5,.39c1.59.25,3.1.55,4.52.89s2.75.64,4,.9a17.13,17.13,0,0,0,3.49.38h3.07c-.06,1-.11,1.88-.17,2.73s-.09,1.74-.09,2.65c0,1.65.07,3.35.22,5.11s.26,3.47.38,5.12Z"/><path class="cls-1" d="M624.62,252.21a12.86,12.86,0,0,0,4-1,7.94,7.94,0,0,0,2.64-1.91,13.34,13.34,0,0,0,1.88-2.77c.54-1.06,1.09-2.26,1.67-3.63l16.71-39L650,199.85q2.73-.51,5.37-1.24a35,35,0,0,0,5.12-1.83L678.94,247a6.94,6.94,0,0,0,3.58,4,11.84,11.84,0,0,0,5.2,1.23v2l-3.67-.17c-1.36-.06-2.73-.1-4.09-.13s-2.73,0-4.09,0h-3.59q-3.59,0-7.11.08t-7.13.26v-2a17.91,17.91,0,0,0,6.57-1.45,3.56,3.56,0,0,0,2.13-3.33,8.28,8.28,0,0,0-.3-2,22.66,22.66,0,0,0-.76-2.44l-.94-2.47c-.31-.82-.59-1.52-.81-2.09L661,230h-17l-4.35,12c-.28.8-.58,1.57-.9,2.3a7.36,7.36,0,0,0-.46,2.82,2.84,2.84,0,0,0,.72,1.87,6.78,6.78,0,0,0,1.87,1.5,14.13,14.13,0,0,0,2.48,1.06,14.77,14.77,0,0,0,2.43.6v2c-1.82-.12-3.65-.21-5.5-.26s-3.68-.09-5.5-.09-3.41,0-5.12.09-3.41.14-5.11.25Zm35.22-25.41-7-20h-.17l-7.43,20Z"/><path class="cls-1" d="M712.88,198q7.43.51,14.92.52c5.06,0,10.09-.18,15.1-.51l-.26,2a24.77,24.77,0,0,0-5,.68,5.41,5.41,0,0,0-2.73,1.58,5.69,5.69,0,0,0-1.15,2.9,35.55,35.55,0,0,0-.26,4.73v28.31a12.27,12.27,0,0,0,.9,4.57,11,11,0,0,0,2.81,4,14.35,14.35,0,0,0,4.95,2.91,21.19,21.19,0,0,0,7.29,1.1,19.91,19.91,0,0,0,8.48-1.57,15.07,15.07,0,0,0,5.29-3.88,13.67,13.67,0,0,0,2.69-5,18.75,18.75,0,0,0,.76-5v-21a47.49,47.49,0,0,0-.42-7,10.62,10.62,0,0,0-1.54-4.35,5.94,5.94,0,0,0-3-2.3,14.31,14.31,0,0,0-4.86-.69v-2c1.31.11,2.94.23,4.9.34s4,.17,6.19.17c1.75,0,3.5-.06,5.24-.17l5.16-.34v2a17.82,17.82,0,0,0-4.39.68,4.9,4.9,0,0,0-2.43,1.58,5.53,5.53,0,0,0-1.07,2.89,40.6,40.6,0,0,0-.22,4.74v23.36q0,10.67-6,16.5t-16.84,5.84a35.19,35.19,0,0,1-11.17-1.58,23.78,23.78,0,0,1-7.76-4.14,16.6,16.6,0,0,1-4.56-5.71,14.57,14.57,0,0,1-1.49-6.31v-28a28.31,28.31,0,0,0-.26-4,5.77,5.77,0,0,0-4-5,17.93,17.93,0,0,0-5.24-.89Zm27.54-3.75,9.81-11.85a20.43,20.43,0,0,1,3.11-3,4.84,4.84,0,0,1,2.86-1,4,4,0,0,1,2.86,1.11,3.33,3.33,0,0,1,1.15,2.39,5.13,5.13,0,0,1-.43,2.13,4.14,4.14,0,0,1-1.62,1.71l-12.79,8.52Z"/><path class="cls-1" d="M807.52,251.88a25.61,25.61,0,0,0,4.86-.76,5.1,5.1,0,0,0,2.69-1.62,5.86,5.86,0,0,0,1.15-2.94,35.6,35.6,0,0,0,.26-4.74v-32a33.89,33.89,0,0,0-.26-4.74,5.94,5.94,0,0,0-1.14-2.94,5.17,5.17,0,0,0-2.74-1.62,28.53,28.53,0,0,0-5-.77v-2.05l5.41.52c1.8.17,3.6.26,5.42.26,3.52,0,7.19-.15,11-.43s8.32-.43,13.56-.43a36.61,36.61,0,0,1,11.55,1.92,30.78,30.78,0,0,1,10.28,5.76A28.77,28.77,0,0,1,874.72,228,27.18,27.18,0,0,1,872.29,240a23,23,0,0,1-6.57,8.27,27.83,27.83,0,0,1-9.55,4.82,40.86,40.86,0,0,1-11.47,1.58q-3.5,0-6.05-.09c-1.71-.05-3.4-.13-5.08-.21l-5.33-.26c-1.87-.08-4.15-.13-6.82-.13q-4.51,0-7.84.09c-2.22,0-4.24.14-6.06.25Zm20.38-4.6a2.43,2.43,0,0,0,1,2,7.9,7.9,0,0,0,2.73,1.33,20.51,20.51,0,0,0,4,.72c1.51.15,3.09.21,4.73.22a26.61,26.61,0,0,0,9.13-1.49,18.25,18.25,0,0,0,7-4.52,20.11,20.11,0,0,0,4.44-7.63,34.43,34.43,0,0,0,1.53-10.83,32.13,32.13,0,0,0-1.66-10.54,24.39,24.39,0,0,0-4.82-8.35,21.48,21.48,0,0,0-7.71-5.5,26,26,0,0,0-10.36-2,37.62,37.62,0,0,0-10,1.37Z"/><path class="cls-1" d="M905.42,252.24a19.86,19.86,0,0,0,4.64-.73,5.5,5.5,0,0,0,2.69-1.71,6.07,6.07,0,0,0,1.24-2.94,26.73,26.73,0,0,0,.3-4.34V210.11a25.67,25.67,0,0,0-.3-4.18,6.44,6.44,0,0,0-1.24-3,5.87,5.87,0,0,0-2.68-1.84,15.42,15.42,0,0,0-4.65-.72V198l8.74.34q4.4.18,8.74.18,8.28,0,16.46-.17l16.72-.34c-.06,1-.09,2.05-.09,3.07v3c0,1.76,0,3.5.08,5.21a23.71,23.71,0,0,0,.6,4.68l-1.88.35a18.54,18.54,0,0,0-6.52-9.77q-4.47-3.28-13-3.28h-9.56V222h4.44a16.8,16.8,0,0,0,4.35-.56,12.65,12.65,0,0,0,4-1.79,11.65,11.65,0,0,0,3.2-3.28,15.1,15.1,0,0,0,2.05-5h1.7q-.09,3-.21,6.06c-.08,2-.13,4.06-.13,6s0,4.08.13,6.1.15,4,.21,6.09h-1.7a17.59,17.59,0,0,0-2-5.28,11.83,11.83,0,0,0-3-3.42,10.94,10.94,0,0,0-3.88-1.83,19.12,19.12,0,0,0-4.73-.55h-4.44v25.32a27.3,27.3,0,0,0,4.56.89,47.51,47.51,0,0,0,5.59.3,29.21,29.21,0,0,0,15.09-4q6.74-4,11.43-12.32L964,236q-2.13,4.51-4,9a93.24,93.24,0,0,0-3.37,9.29q-6.65-.18-13.22-.26t-13.22-.09h-7.92c-2.51,0-4.82,0-7,.05s-4,.07-5.72.12-3,.11-4.13.17Z"/><path class="cls-1" d="M494.53,207.64H509.6V209a22.08,22.08,0,0,0-3.2.61,5.7,5.7,0,0,0-2.15,1.14,8.53,8.53,0,0,0-1.7,2.09c-.52.87-1.15,2-1.89,3.46l-6,11.6a17.52,17.52,0,0,0,5.12,5.52,13.6,13.6,0,0,0,7.27,2.12v1.56c-1.56-.09-3.12-.15-4.66-.2s-3.1-.06-4.66-.06c-1.35,0-2.69,0-4,.06s-2.67.11-4,.2l-1-2.94a19.5,19.5,0,0,1-5.68,2.91,20,20,0,0,1-6.19,1.07,18.69,18.69,0,0,1-5.12-.68,11.34,11.34,0,0,1-4.14-2.15,10.11,10.11,0,0,1-2.77-3.79,13.59,13.59,0,0,1-1-5.51,11.28,11.28,0,0,1,1.14-5.22,12.7,12.7,0,0,1,3-3.84,17.39,17.39,0,0,1,4.31-2.71,31.23,31.23,0,0,1,4.95-1.73c-1-.6-2-1.22-2.9-1.85a17.24,17.24,0,0,1-2.51-2.06,8.49,8.49,0,0,1-1.76-2.55,8.15,8.15,0,0,1-.65-3.38,6.05,6.05,0,0,1,1-3.36,9,9,0,0,1,2.64-2.65,13.76,13.76,0,0,1,3.84-1.72,17.17,17.17,0,0,1,4.67-.62,16.73,16.73,0,0,1,4.82.65,11.59,11.59,0,0,1,3.69,1.83,8.25,8.25,0,0,1,2.35,2.74,7.11,7.11,0,0,1,.81,3.32,8,8,0,0,1-.81,3.72,9,9,0,0,1-2.19,2.71,12.73,12.73,0,0,1-3.1,1.89,29.38,29.38,0,0,1-3.55,1.27,14.66,14.66,0,0,1,3.36,2.7,27.87,27.87,0,0,1,2.67,3.43,41.44,41.44,0,0,1,2.18,3.72c.65,1.26,1.24,2.45,1.76,3.58.35-.65.81-1.53,1.37-2.64s1.11-2.28,1.63-3.52,1-2.43,1.37-3.58a9.28,9.28,0,0,0,.59-2.78,4.21,4.21,0,0,0-.91-3.13,6.28,6.28,0,0,0-3.07-1.24Zm-22.37,15.45a13.39,13.39,0,0,0,.69,4.37,10.34,10.34,0,0,0,2,3.49,8.67,8.67,0,0,0,3.09,2.28,9.73,9.73,0,0,0,4,.82,10.85,10.85,0,0,0,3.17-.46,7.16,7.16,0,0,0,2.77-1.56q-.92-2-2-4.76t-2.25-5.48c-.78-1.78-1.57-3.42-2.38-4.89a7.61,7.61,0,0,0-2.51-3,11.71,11.71,0,0,0-5.05,3.62A9.3,9.3,0,0,0,472.16,223.09ZM476.6,203a7.49,7.49,0,0,0,1.66,4.72,12.13,12.13,0,0,0,3.88,3.3,11.36,11.36,0,0,0,3.33-3.07,8.21,8.21,0,0,0,1.24-4.82,11.45,11.45,0,0,0-.23-2.28,5.5,5.5,0,0,0-.81-2,4.63,4.63,0,0,0-1.57-1.44,5,5,0,0,0-2.48-.55,4.2,4.2,0,0,0-3.84,1.85A7.8,7.8,0,0,0,476.6,203Z"/><rect class="cls-1" x="463.57" y="248.04" width="42.87" height="7.44"/></svg>