<svg id="Layer_1" data-name="Layer 1" xmlns="http://www.w3.org/2000/svg" viewBox="325 280 430 520"><defs><style>.cls-1{fill:#64a1bc;}.cls-2{fill:#ffffff;}</style></defs><path class="cls-1" d="M407.3,484.31s34.59,53.46,106.92,39.31,101.43-33.81,115.58-71.54c0,0,31.45-68.11,0-104.81-22.41-26.16-79.32-72.5-146.53-61-55,9.43-96.23,54.83-103.52,110.12C376.28,422.77,381.17,451.32,407.3,484.31Z"/><path class="cls-2" d="M335.17,516.28s43.49,105.61,125,152.21c10.09,7.76,4.66,32.61,19.41,73.77s31.06,62.12,36.5,49.7,8.54-32.62,5.43-50.48,1.24-62.63,1.24-62.63,56.23,13.71,119.9-11.92c14-3.88,21.75,17.86,21.75,31.84s14,83.09,24.07,78.43,10.1-14.75,14-27.18,8.54-24.85,7.76-43.48,2.51-30.22.09-36.08-7.85-19.83-7.85-19.83S718,635.87,725,633.54s28-27.18,28-33.39-7.76-26.4-18.63-35.72-7-15.53-35,7.77-36.5,30.28-66,40.38-55.14,27.17-73,18.63-72.22-60.57-90.86-108.71-24.84-72.22-46.59-72.22-34.94-7-55.13-6.21-28.73-1.43-32.62,18.31-10.87,25.95-7,38.37S335.17,516.28,335.17,516.28Z"/></svg>