<svg id="Layer_1" data-name="Layer 1" xmlns="http://www.w3.org/2000/svg" viewBox="350 245 380 590"><defs><style>.cls-1{fill:#64a1bc;}.cls-2{fill:#2a3840;}</style></defs><path class="cls-1" d="M580.25,339.14s-36.2-24.44-45.13-32.44-6.11-12.69-8-16.45-16.46-12.69-16.93-18.34,4.7-12.22,9.88-16.92,14.1-2.82,19.74-2.82S552,247,569.91,257.34s24.45,15.51,40.43,21.63,28.68,11.75,39.49,20.21,15.52,9.87,20.22,15.52,8.46,8.93,16.45,12.69,13.64,4.23,18.34,16.46,21.63,38.55,20.69,40.43-8.47-4.23-13.17-10.82S699.67,362.65,694,357,679.45,342,664.41,342c0,0,0,8,6.58,17.87a57.48,57.48,0,0,1,9.4,32c0,10.81-9.87,54.54-17.39,60.18,0,0,4.7,17.39-5.64,42.31s-32.91,55.48-32.91,65.35-11.29,22.57-11.29,28.21S598.59,631.1,615,644.27l-8.93-3.3s0,4.24-1.41,4.71,3.76,7.05,3.76,7.05-5.17-3.76-7.05-3.76-7.52-3.29-8-6.59-9.88-26.32-9.88-26.32-.47,5.64-1.41,7.05-4.7-8-4.7-15.52,3.29-18.33,3.29-23,5.17-26.33,5.17-31,18.34-52.19,18.34-52.19-32,35.73-48,39-35.26,6.12-38.09,8.47-3.29-.47.47-4.23,23-16.46,33.85-21.63,34.8-26.33,43.26-36.2,11.75-25.39,17.39-28.21,8-.47,11.29-7.52,2.82-8.47,4.23-12.23-2.35-15-2.82-20.21-5.64-18.34-9.88-24.92-8.93-16.92-11.28-16.92-4.23,16.45-8.46,24-5.64,18.34-4.23,25.86,3.76,19.75,5.17,23-.94,5.17-3.76-.47-8-21.63-11.29-24.45-6.58-14.57-6.11-19.28-1.41-22.09-1.41-27.73S574.14,347.14,580.25,339.14Z"/><path class="cls-2" d="M469.15,531.16s23.14-37,28.05-48,.42-14.08.61-18.28,9.87-18.29,8-23.63-9.27-9.26-15.9-11.45-14,3.15-19.19,5.45-13.27.24-25.39,17-16,24.11-28.14,36.19-21.43,22.4-27.87,34.53-10.16,15.33-12.16,22.39-4.1,11.6-9.87,18.29-10.74,9.41-10.06,22.49-4.09,44-2.46,45.35,6-7.31,7.63-15.23,7.2-15,10.06-22.49,7.2-19.67,20.94-25.79c0,0,3.25,7.3,1.25,19a57.43,57.43,0,0,0,4.41,33c4.39,9.88,31.19,45.81,40.36,47.91,0,0,2.77,17.8,22.35,36.36s52.63,37.31,56.64,46.33,19.48,16,21.78,21.18,30.9,33.59,21.22,52.31l6.82-6.64s1.72,3.87,3.2,3.72-.57,8-.57,8,3.2-5.53,4.91-6.3,5.54-6.06,4.63-9.26-1.68-28.07-1.68-28.07,2.72,5,4.15,5.87,1-9.21-2-16.09-10.46-15.41-12.37-19.7-15.43-22-17.34-26.25-38-40.22-38-40.22,43.73,19.64,59.68,16.15,34.7-8.75,38.23-7.75,2.81-1.77-2.15-3.68-27.74-5.66-39.72-6-42.49-9.91-54.24-15.49-21.05-18.42-27.36-18.7-7.49,2.82-13.36-2.29-6-6.58-8.84-9.44-4-14.7-5.64-19.62-2.3-19-1.11-26.78,1.28-19.09,3.43-20,10.55,13.31,17.48,18.47,12.61,14.45,14.38,21.9,4.59,19.57,4.64,23.15,3,4.34,3.24-2-1.49-23,.37-26.92.09-16-2.25-20.1-7.7-20.76-10-25.91S478,536,469.15,531.16Z"/></svg>