<svg id="Layer_1" data-name="Layer 1" xmlns="http://www.w3.org/2000/svg" viewBox="0 0 1080 434"><defs><style>.cls-1{fill:#fff;}</style></defs><path class="cls-1" d="M773.28,137.2a10.62,10.62,0,0,0-2.75-5.64,8.68,8.68,0,0,0-2.44-1.79,6.52,6.52,0,0,0-2.94-.68,6.22,6.22,0,0,0-3.49.93,7.44,7.44,0,0,0-2.27,2.37,9.81,9.81,0,0,0-1.23,3.19,17,17,0,0,0-.36,3.41,12.78,12.78,0,0,0,.59,3.95,9,9,0,0,0,1.72,3.14,7.89,7.89,0,0,0,2.85,2.07,10,10,0,0,0,4,.74,8.65,8.65,0,0,0,2.95-.48,9.61,9.61,0,0,0,2.38-1.25,10.42,10.42,0,0,0,1.86-1.7,19.09,19.09,0,0,0,1.43-1.88l.83.86a14.6,14.6,0,0,1-4.86,5.14,12.64,12.64,0,0,1-6.8,1.79,13.12,13.12,0,0,1-4.76-.84,11.31,11.31,0,0,1-3.76-2.4,11.17,11.17,0,0,1-2.48-3.74,12.84,12.84,0,0,1-.89-4.92,12.29,12.29,0,0,1,.92-4.87,11.19,11.19,0,0,1,2.59-3.75,11.68,11.68,0,0,1,4-2.41,14.5,14.5,0,0,1,5.07-.86,15.6,15.6,0,0,1,2.27.19c.88.12,1.72.27,2.52.43l2.17.43a8.53,8.53,0,0,0,1.11.19,1.13,1.13,0,0,0,.38,0c0,.47,0,.91,0,1.33s0,.87,0,1.33c0,1,0,1.93.1,2.88s.16,1.91.28,2.88Z"/><path class="cls-1" d="M785.9,150a5.42,5.42,0,0,0,1.61-.39,3.29,3.29,0,0,0,1.07-.78,5.37,5.37,0,0,0,.76-1.12c.22-.42.44-.91.67-1.47l6.76-15.76-.62-1.65c.73-.14,1.46-.31,2.17-.5a15,15,0,0,0,2.07-.74l7.48,20.31a2.79,2.79,0,0,0,1.45,1.6,4.7,4.7,0,0,0,2.11.5v.83l-1.49-.07-1.65-.05-1.66,0h-1.45c-1,0-1.92,0-2.88,0s-1.91.06-2.88.1V150a7.37,7.37,0,0,0,2.66-.58,1.45,1.45,0,0,0,.86-1.35,3.37,3.37,0,0,0-.12-.79,8.6,8.6,0,0,0-.31-1l-.38-1c-.13-.34-.23-.62-.33-.85L800.63,141h-6.86L792,145.89c-.12.32-.23.63-.36.93a2.89,2.89,0,0,0-.19,1.14,1.17,1.17,0,0,0,.29.76,2.73,2.73,0,0,0,.76.6,5.29,5.29,0,0,0,1,.43,5.34,5.34,0,0,0,1,.24v.83c-.73,0-1.47-.08-2.22-.1s-1.49,0-2.23,0-1.38,0-2.07,0-1.38.06-2.07.1Zm14.25-10.27-2.83-8.07h-.07l-3,8.07Z"/><path class="cls-1" d="M838.74,134.92a7.74,7.74,0,0,0-1.12-2.38,9.73,9.73,0,0,0-1.8-1.93,8.28,8.28,0,0,0-2.22-1.31,6.59,6.59,0,0,0-2.45-.48,4.32,4.32,0,0,0-2.64.81,2.84,2.84,0,0,0-1.08,2.43,2.69,2.69,0,0,0,1,2.1,10.74,10.74,0,0,0,2.46,1.57c1,.47,2.06,1,3.2,1.43a18.91,18.91,0,0,1,3.19,1.75,9.18,9.18,0,0,1,2.46,2.43,6,6,0,0,1,1,3.51,6.15,6.15,0,0,1-.59,2.7,6,6,0,0,1-1.66,2,8,8,0,0,1-2.58,1.31,11.56,11.56,0,0,1-3.38.46,10.11,10.11,0,0,1-1.73-.15c-.57-.11-1.14-.22-1.7-.35s-1.14-.24-1.71-.34a9.21,9.21,0,0,0-1.73-.16,2,2,0,0,0-.36,0l-.48.12-.5.14-.38.14c-.18-1.29-.38-2.58-.59-3.9s-.47-2.63-.79-4h.76a8.67,8.67,0,0,0,1.24,2.52,11.8,11.8,0,0,0,2,2.22,10.09,10.09,0,0,0,2.5,1.57,6.61,6.61,0,0,0,2.65.58,11,11,0,0,0,2.07-.17,4.71,4.71,0,0,0,1.61-.57,2.72,2.72,0,0,0,1-1.07,3.54,3.54,0,0,0,.36-1.7,3.09,3.09,0,0,0-1-2.36,10.57,10.57,0,0,0-2.5-1.73q-1.5-.78-3.24-1.5a22.36,22.36,0,0,1-3.24-1.65,9.75,9.75,0,0,1-2.5-2.21,4.92,4.92,0,0,1-1-3.14,5.49,5.49,0,0,1,2-4.71q2-1.45,6-1.46a13,13,0,0,1,2,.15c.64.1,1.25.23,1.83.36l1.62.37a7.29,7.29,0,0,0,1.41.15h1.25c0,.39-.05.76-.07,1.11s0,.7,0,1.06q0,1,.09,2.07c.05.72.11,1.41.15,2.07Z"/><path class="cls-1" d="M851.94,150a5.42,5.42,0,0,0,1.61-.39,3.4,3.4,0,0,0,1.07-.78,5.37,5.37,0,0,0,.76-1.12c.22-.42.44-.91.67-1.47l6.76-15.76-.62-1.65c.73-.14,1.46-.31,2.17-.5a15,15,0,0,0,2.07-.74l7.48,20.31a2.79,2.79,0,0,0,1.45,1.6,4.7,4.7,0,0,0,2.11.5v.83l-1.49-.07-1.65-.05-1.66,0h-1.45c-1,0-1.92,0-2.88,0s-1.91.06-2.88.1V150a7.43,7.43,0,0,0,2.66-.58,1.45,1.45,0,0,0,.86-1.35,3.37,3.37,0,0,0-.12-.79,8.6,8.6,0,0,0-.31-1l-.38-1c-.13-.34-.23-.62-.33-.85L866.67,141h-6.86l-1.76,4.86-.36.93a2.89,2.89,0,0,0-.19,1.14,1.17,1.17,0,0,0,.29.76,2.73,2.73,0,0,0,.76.6,5.29,5.29,0,0,0,1,.43,5.34,5.34,0,0,0,1,.24v.83c-.73,0-1.48-.08-2.22-.1s-1.49,0-2.23,0-1.38,0-2.07,0-1.38.06-2.07.1Zm14.25-10.27-2.83-8.07h-.07l-3,8.07Z"/><path class="cls-1" d="M807.49,176.3a7.62,7.62,0,0,0-1.12-2.38,9.68,9.68,0,0,0-1.79-1.93,8.77,8.77,0,0,0-2.23-1.31,6.54,6.54,0,0,0-2.44-.48,4.27,4.27,0,0,0-2.64.81,2.82,2.82,0,0,0-1.09,2.43,2.73,2.73,0,0,0,1,2.11,10.92,10.92,0,0,0,2.47,1.56c1,.48,2,.95,3.19,1.44a17.83,17.83,0,0,1,3.19,1.74,9.52,9.52,0,0,1,2.47,2.43,6.64,6.64,0,0,1,.39,6.21,5.94,5.94,0,0,1-1.65,2,7.89,7.89,0,0,1-2.59,1.31,11.51,11.51,0,0,1-3.38.46,10,10,0,0,1-1.72-.15c-.58-.1-1.15-.22-1.71-.35s-1.13-.24-1.71-.34a9.1,9.1,0,0,0-1.72-.16,2,2,0,0,0-.36.05l-.49.13-.5.13a3.33,3.33,0,0,0-.37.14c-.19-1.29-.39-2.58-.59-3.9s-.47-2.63-.79-4H792a9,9,0,0,0,1.25,2.52,11.44,11.44,0,0,0,2,2.22,10,10,0,0,0,2.5,1.57,6.64,6.64,0,0,0,2.66.59,10.93,10.93,0,0,0,2.07-.18,4.66,4.66,0,0,0,1.6-.57,2.78,2.78,0,0,0,1-1.06,3.61,3.61,0,0,0,.36-1.71,3.14,3.14,0,0,0-1-2.36,10.78,10.78,0,0,0-2.5-1.73c-1-.51-2.08-1-3.24-1.5a21.38,21.38,0,0,1-3.24-1.65,9.45,9.45,0,0,1-2.51-2.21,5,5,0,0,1-1-3.14,5.5,5.5,0,0,1,2-4.71q2-1.46,6-1.46a13.2,13.2,0,0,1,2,.15c.64.11,1.25.23,1.82.37l1.63.36a7.21,7.21,0,0,0,1.41.15h1.24c0,.4-.05.76-.07,1.11s0,.7,0,1.07c0,.66,0,1.35.08,2.07s.11,1.4.16,2.06Z"/><path class="cls-1" d="M820.7,191.37a5.07,5.07,0,0,0,1.6-.39,3.15,3.15,0,0,0,1.07-.78,5.12,5.12,0,0,0,.76-1.12c.22-.42.44-.91.67-1.47l6.76-15.76-.62-1.65c.74-.14,1.46-.3,2.17-.5a13.52,13.52,0,0,0,2.08-.74l7.48,20.31a2.81,2.81,0,0,0,1.45,1.61,4.78,4.78,0,0,0,2.1.49v.83l-1.48-.07-1.66,0-1.65,0H840c-1,0-1.93,0-2.88,0s-1.91.06-2.88.1v-.83a7.16,7.16,0,0,0,2.65-.58,1.44,1.44,0,0,0,.87-1.35,3.55,3.55,0,0,0-.13-.79,9.92,9.92,0,0,0-.3-1l-.39-1c-.12-.34-.23-.62-.32-.85l-1.18-3.41h-6.86l-1.76,4.86q-.16.48-.36.93a2.89,2.89,0,0,0-.19,1.14,1.13,1.13,0,0,0,.3.76,2.47,2.47,0,0,0,.76.6,4.63,4.63,0,0,0,1,.43,5.43,5.43,0,0,0,1,.24v.83c-.74,0-1.48-.08-2.23-.1s-1.49,0-2.22,0-1.38,0-2.07,0-1.38.06-2.07.1Zm14.24-10.27L832.11,173h-.06l-3,8.07Z"/><path class="cls-1" d="M856.39,169.44c2,.14,4,.21,6,.21s4.08-.07,6.1-.21l-.1.83a10.87,10.87,0,0,0-2,.27,2.22,2.22,0,0,0-1.1.64,2.31,2.31,0,0,0-.47,1.18,14.17,14.17,0,0,0-.1,1.91v11.45a4.94,4.94,0,0,0,.36,1.84,4.43,4.43,0,0,0,1.14,1.64,5.72,5.72,0,0,0,2,1.17,8.59,8.59,0,0,0,3,.45,8.18,8.18,0,0,0,3.43-.63,6.17,6.17,0,0,0,2.14-1.57,5.44,5.44,0,0,0,1.08-2,7.38,7.38,0,0,0,.31-2v-8.49a18.38,18.38,0,0,0-.17-2.83,4.13,4.13,0,0,0-.62-1.75,2.46,2.46,0,0,0-1.21-.94,5.93,5.93,0,0,0-2-.27v-.83c.53.05,1.19.09,2,.14s1.63.07,2.5.07c.71,0,1.42,0,2.12-.07l2.09-.14v.83a8.28,8.28,0,0,0-1.78.27,2.1,2.1,0,0,0-1,.64,2.3,2.3,0,0,0-.43,1.18,16.37,16.37,0,0,0-.09,1.91v9.45a8.87,8.87,0,0,1-2.43,6.67,9.34,9.34,0,0,1-6.81,2.36,14.42,14.42,0,0,1-4.52-.63,9.84,9.84,0,0,1-3.14-1.68,6.74,6.74,0,0,1-1.84-2.31,5.94,5.94,0,0,1-.6-2.55V174.27a11.24,11.24,0,0,0-.11-1.64,2.66,2.66,0,0,0-.48-1.21,2.62,2.62,0,0,0-1.16-.79,7.5,7.5,0,0,0-2.12-.36Zm11.14-1.52,4-4.79a8.09,8.09,0,0,1,1.26-1.21,2,2,0,0,1,1.15-.41,1.61,1.61,0,0,1,1.16.45,1.32,1.32,0,0,1,.46,1,2,2,0,0,1-.17.87,1.71,1.71,0,0,1-.66.69l-5.17,3.44Z"/><path class="cls-1" d="M894.67,191.24a11.67,11.67,0,0,0,2-.31,2.08,2.08,0,0,0,1.08-.66,2.39,2.39,0,0,0,.47-1.19,14.17,14.17,0,0,0,.1-1.91V174.24a14.33,14.33,0,0,0-.1-1.92,2.43,2.43,0,0,0-.47-1.19,2,2,0,0,0-1.1-.65,11.24,11.24,0,0,0-2-.31v-.83l2.19.21c.73.06,1.45.1,2.19.1,1.43,0,2.91-.06,4.45-.17s3.37-.18,5.48-.18a14.57,14.57,0,0,1,4.67.78,12.34,12.34,0,0,1,4.16,2.33,11.85,11.85,0,0,1,3,3.84,12,12,0,0,1,1.14,5.33,11,11,0,0,1-1,4.83,9.24,9.24,0,0,1-2.65,3.34,11.21,11.21,0,0,1-3.87,1.95,16.29,16.29,0,0,1-4.63.64c-1,0-1.76,0-2.45,0l-2-.09-2.16-.1q-1.14-.06-2.76-.06c-1.22,0-2.28,0-3.17,0s-1.71.06-2.45.1Zm8.24-1.86a1,1,0,0,0,.42.81,3.42,3.42,0,0,0,1.1.53,7.64,7.64,0,0,0,1.6.29q.91.09,1.92.09a10.58,10.58,0,0,0,3.69-.61,7.35,7.35,0,0,0,2.82-1.82,8.11,8.11,0,0,0,1.8-3.09,14,14,0,0,0,.62-4.38,13.21,13.21,0,0,0-.67-4.26,9.92,9.92,0,0,0-2-3.38,8.79,8.79,0,0,0-3.12-2.22,10.51,10.51,0,0,0-4.19-.8,15.31,15.31,0,0,0-2,.14,16.2,16.2,0,0,0-2,.42Z"/><path class="cls-1" d="M934.26,191.37a7.66,7.66,0,0,0,1.88-.29,2.2,2.2,0,0,0,1.08-.69,2.54,2.54,0,0,0,.51-1.19,11,11,0,0,0,.12-1.76v-13.1a10.38,10.38,0,0,0-.12-1.69,2.66,2.66,0,0,0-.51-1.21,2.34,2.34,0,0,0-1.08-.74,6.13,6.13,0,0,0-1.88-.29v-1l3.53.14c1.19,0,2.37.07,3.54.07q3.34,0,6.65-.07l6.77-.14c0,.42,0,.83,0,1.24v1.21c0,.71,0,1.41,0,2.1a9.88,9.88,0,0,0,.23,1.9l-.75.14a7.62,7.62,0,0,0-2.64-3.95,8.86,8.86,0,0,0-5.26-1.33h-3.86v8.38h1.79a7,7,0,0,0,1.76-.22,5,5,0,0,0,1.6-.73,4.68,4.68,0,0,0,1.3-1.32,6.22,6.22,0,0,0,.82-2h.69c0,.81,0,1.62-.08,2.45s-.05,1.64-.05,2.45,0,1.65.05,2.46.06,1.64.08,2.47h-.69a7.14,7.14,0,0,0-.79-2.14,5,5,0,0,0-1.21-1.38,4.5,4.5,0,0,0-1.56-.74,7.78,7.78,0,0,0-1.92-.22h-1.79v10.24a11.32,11.32,0,0,0,1.84.36,19.41,19.41,0,0,0,2.26.12,11.83,11.83,0,0,0,6.11-1.6,13,13,0,0,0,4.62-5l.65.48c-.57,1.22-1.12,2.44-1.64,3.65A39,39,0,0,0,955,192.2c-1.79,0-3.57-.08-5.34-.1s-3.56,0-5.35,0h-3.21l-2.81,0-2.31,0-1.67.07Z"/><path class="cls-1" d="M768.63,171h6v.51a8.36,8.36,0,0,0-1.27.25,2.11,2.11,0,0,0-.85.45,3.2,3.2,0,0,0-.67.83c-.21.34-.46.8-.75,1.37L768.68,179a6.9,6.9,0,0,0,2,2.18,5.26,5.26,0,0,0,2.88.84v.62c-.62,0-1.24-.06-1.85-.07s-1.22,0-1.84,0-1.07,0-1.59,0-1.06,0-1.59.07l-.39-1.16a7.51,7.51,0,0,1-2.24,1.15,8,8,0,0,1-2.46.43,7.25,7.25,0,0,1-2-.27A4.51,4.51,0,0,1,758,182a3.9,3.9,0,0,1-1.1-1.49,5.42,5.42,0,0,1-.4-2.19,4.44,4.44,0,0,1,.45-2.06,5,5,0,0,1,1.2-1.53,7.06,7.06,0,0,1,1.71-1.07,12.28,12.28,0,0,1,2-.68c-.4-.24-.78-.49-1.15-.74a6.69,6.69,0,0,1-1-.81,3.21,3.21,0,0,1-.7-1,3.27,3.27,0,0,1-.26-1.34,2.41,2.41,0,0,1,.39-1.33,3.58,3.58,0,0,1,1-1.05,5.35,5.35,0,0,1,1.53-.68,6.82,6.82,0,0,1,1.84-.25,6.58,6.58,0,0,1,1.91.26,4.43,4.43,0,0,1,1.46.72,3.19,3.19,0,0,1,.93,1.09,2.74,2.74,0,0,1,.32,1.32,3.12,3.12,0,0,1-.32,1.47,3.42,3.42,0,0,1-.86,1.07,5.06,5.06,0,0,1-1.23.75,11.81,11.81,0,0,1-1.41.5,5.54,5.54,0,0,1,1.33,1.07,11.55,11.55,0,0,1,1.06,1.36,15.74,15.74,0,0,1,.87,1.47c.25.5.49,1,.69,1.42l.55-1c.22-.44.43-.91.64-1.4s.39-1,.54-1.42a3.48,3.48,0,0,0,.24-1.1,1.64,1.64,0,0,0-.37-1.24,2.5,2.5,0,0,0-1.21-.49Zm-8.86,6.12a5.15,5.15,0,0,0,.28,1.73,4,4,0,0,0,.77,1.38,3.35,3.35,0,0,0,1.23.9,3.78,3.78,0,0,0,1.6.33,4,4,0,0,0,1.25-.19,2.92,2.92,0,0,0,1.1-.61c-.24-.52-.51-1.15-.79-1.89s-.58-1.46-.89-2.17-.63-1.35-.94-1.94a3,3,0,0,0-1-1.18,4.61,4.61,0,0,0-2,1.43A3.73,3.73,0,0,0,759.77,177.15Zm1.76-8a3,3,0,0,0,.66,1.88,5,5,0,0,0,1.53,1.3,4.56,4.56,0,0,0,1.32-1.21,3.29,3.29,0,0,0,.49-1.92,4.43,4.43,0,0,0-.09-.9,2.39,2.39,0,0,0-.32-.79,1.76,1.76,0,0,0-.62-.56,2,2,0,0,0-1-.22,1.67,1.67,0,0,0-1.53.73A3.19,3.19,0,0,0,761.53,169.19Z"/><rect class="cls-1" x="756.37" y="187.03" width="16.98" height="2.95"/><path class="cls-1" d="M108.12,125s6.54,1.41,10.75.94,8.7.19,11.6.09,10.95,0,13.53-.51a63,63,0,0,1,9.86-.52c2.54,0,26.16-2.32,31.89-1.63s31,5.84,39.41,6.78,27.13-1.87,29.93-.94,24.64-5.3,27.38-2.42,5.56,5.23,6,8.5.94,1.87,2.34,7.49,1.91,8.66,1.91,11.93-4.25,2.39-8.92,3.33-32.08,1.87-41.16,0-25.92-1.74-29.66-1.74-7.49.47-9.83,0a114,114,0,0,0-15-.94c-5.15,0-11.7-.93-20.58.94s-11.7,1.87-14,1.87-8,.93-13.1.47-34.77,1.87-40.85-2.81S97.31,144.61,96.42,132C96.28,129.89,96,123.09,108.12,125Z"/><path class="cls-1" d="M105.05,167.55s8.42,1.87,12.17,1.87,35.66,5.61,42.68,5.14,31.58-.7,42.8,3.51,15.91,3,22,4.38,15,5.44,17.77,6.85,16.84,1.4,21,.93,16.66-1.87,19.93-.93,9.3-.93,9.36,6.54c0,4.68.49,16.77-2.8,16.77s-14.81-1.1-21.94-1.1c-5.23,0-13.44-1.93-16.71-1.93s-14.5-.94-21-1.87-12.16-.47-15.43-1.41-12.55-5.9-15.1-6.31c-17.31-2.81-45.71-1.64-50.85-2.57s-19.18,0-22.92,0-25.09-1.32-28.93-.94c-4.68.47-1.14-20.75-1.6-24S95,165.44,105.05,167.55Z"/><path class="cls-1" d="M99,243.49s7.49.93,10.29,1.4,14.5,1.41,18.24.94,71.1-4.68,83.73-6.08,18.94-.24,23.15-1.17,14-.47,29.47.93,26.19,2.81,27.59,0,1.75-9.35.82-12.63c-.82-2.87-7.37-.46-14.38-.93s-26.66.47-35.08,1.4-8.42.94-9.82.47-2.54-3-10.86-2-36.85-.34-45.27.6-30.4.93-36,.93-22.92-2.8-29-2.8-16-1.87-16,1.87C95.88,231.65,93.54,242.79,99,243.49Z"/><path class="cls-1" d="M163.19,298.68s10.29,15.9,31.81,11.69,30.17-10.05,34.38-21.28c0,0,9.35-20.25,0-31.17-6.67-7.78-23.6-21.57-43.59-18.14-16.35,2.8-28.62,16.31-30.79,32.76C154,280.38,155.42,288.87,163.19,298.68Z"/><path class="cls-1" d="M372.7,124.32a1.09,1.09,0,0,1,1.1,1c1.16,15.72,2.77,41,3,42.82.3,2.41-.3,9.94-.6,11.75s-1.38,11.36-1.38,11.36c-1.28,1.67-5.14,1.72-9.13,1.52-2.4-.11-.88-10.62-.88-14.54s.09-15.06.09-18.67,0-17.78-.6-23.2c-.25-2.2-.24-6.56-.2-11.3a.76.76,0,0,1,.75-.75Z"/><path class="cls-1" d="M460.43,124.09a.77.77,0,0,1,.78.7c.36,3.6,1.94,20.14,1.65,26.09-.63,12.86-1.72,42.82-1.72,42.82h-.49a26.22,26.22,0,0,1-5.55-5.47c-2.79-4.13-10.59-10.56-14.2-14-4.73-4.52-14.45-13.35-18.64-18.37a157,157,0,0,0-15.87-15.64H406s.36,22.71,0,30.26c-.33,6.91,0,21.76,0,22h-4.5c0-.17-.19-6.55,0-8.68.74-8.1-.84-26.16,0-34.82.74-7.56,0-26.1,0-26.1H402s7.39,6.8,9.52,9.37c6.16,7.46,13,12.6,21.35,19.31,5.93,4.77,23.39,24.79,23.39,24.79h.4s.44-31.5,0-45.12c-.06-1.8,0-7.18,0-7.18Z"/><path class="cls-1" d="M486.44,192.53a.81.81,0,0,1-.82-.85c.23-4.61,1.3-26.79,1.68-34.73.64-13.78-1.72-32.86-1.72-32.86h22.49a41.08,41.08,0,0,1,14.86,2.59,35.16,35.16,0,0,1,11.59,7.14,32,32,0,0,1,7.52,10.8,34.17,34.17,0,0,1-7.72,38.23c-3.23,3.06-7,3.73-11.29,5.42s-8.9,4.26-13.79,4.26Zm8-4.3h10.73a31.29,31.29,0,0,0,13.6-2.69,27.36,27.36,0,0,0,9.22-7,27.82,27.82,0,0,0,5.27-9.63A35.77,35.77,0,0,0,535,158.31,33.34,33.34,0,0,0,533,147c-1.31-3.62-1.49-6.81-4-9.59a39.38,39.38,0,0,0-11-8.31c-3.71-1.63-8-.73-12.78-.73H494.48s-2.39,37.59-1.71,50.1A37.74,37.74,0,0,0,494.48,188.23Z"/><path class="cls-1" d="M571.13,124.09a1.11,1.11,0,0,1,1.12,1.06c.21,4.54.91,22.28,0,28.67-1.79,12,1.34,33.62,1.65,37.94a.72.72,0,0,1-.72.77h-9.83s.72-14.6,0-19.39c-1.67-11.11,0-37.54,0-37.54V124.77a.67.67,0,0,1,.68-.68Z"/><path class="cls-1" d="M621.77,124.09a28.12,28.12,0,0,1,10.86,1.81,19.3,19.3,0,0,1,6.79,4.5,15.73,15.73,0,0,1,3.52,5.81,18.78,18.78,0,0,1,1,5.77,20.11,20.11,0,0,1-1,6,17.13,17.13,0,0,1-8.58,10.12,19.83,19.83,0,0,1-8,2.06v.39l1,.49a7.12,7.12,0,0,1,2,1.46,24,24,0,0,1,2.15,2.84c.88,1.3,2.07,3.14,3.55,5.52s3.59,5.56,6.3,9.53q1.36,2.06,2.62,3.67a17.3,17.3,0,0,0,2.64,2.74,9.68,9.68,0,0,0,6.55,2.3c.32,0,.65,0,1-.05s.65-.08,1-.15v2.81a1.3,1.3,0,0,1-.72,1.18,7,7,0,0,1-2,.6,25.63,25.63,0,0,1-3.52.2,14.39,14.39,0,0,1-5-.78,13.54,13.54,0,0,1-3.74-2.1c-1.09-.88-2.1-3.56-3-4.8s-.18-1-1.15-2.49l-7.75-11.44c-1.18-1.82-3.91-3.35-4.76-4.59a13.78,13.78,0,0,0-2.74-3,8.9,8.9,0,0,0-3.29-1.66,17.69,17.69,0,0,0-4.56-.49h-4.32v30.21h-8.9c-.15,1.45-.21-11.85,0-21.29.2-9.05-2-22.92,0-36.2.4-2.71,0-10.95,0-10.95Zm-13.29,33.83h10.11a16.48,16.48,0,0,0,6.91-1.37,15.83,15.83,0,0,0,5.06-3.57c1.37-1.47,4.11-3.09,4.8-4.89a14.74,14.74,0,0,0,1-5.33,14.34,14.34,0,0,0-1.13-5.76c-.75-1.77-3.56-3.28-5-4.55a15.73,15.73,0,0,0-5.15-3,19.7,19.7,0,0,0-6.72-1.08h-9.91s-1.72,11.07-1.72,14.76S608.48,157.92,608.48,157.92Z"/><path class="cls-1" d="M674.08,172.39s-5.68,10.15-6,13.92c-.22,3.14-2.66,6.22-2.66,6.22H661l13.54-32a31.56,31.56,0,0,1,2.45-4.68,81.81,81.81,0,0,0,6-11.25c1.86-4.35,5.59-16.14,6.66-19.55a1.32,1.32,0,0,1,1.27-.93h2.74a1.83,1.83,0,0,1,1.66,1l8,17.22s15.86,27.78,17.76,38.12c.87,4.77,5.39,12.78,5.61,12.05h-8.59a1.42,1.42,0,0,1-1.28-.82l-4.59-9.85-4.41-9.47a43.68,43.68,0,0,1-5.82,0C691.9,170.6,674.08,172.39,674.08,172.39ZM690.4,135H690l-7.86,18.4L675.94,168s7.28.25,9.7,0c8-.82,20.12,0,20.12,0s-4.5-8.31-5.28-11.33C698.76,150,690.4,135,690.4,135Z"/><path class="cls-1" d="M926.49,238.77v4.15s-12.62-.84-18.58,0c-4.29.59-17.32,0-17.32,0v25h30.25a.58.58,0,0,1,.58.58v3.4a.57.57,0,0,1-.58.58c-2.18,0-9.81-.12-12.62,0a167,167,0,0,1-17.63,0s-.4,11.24,0,15a91.13,91.13,0,0,1,0,14.18h34.92a1,1,0,0,1,1,1v3.14a1.41,1.41,0,0,1-1.34,1.42c-3.79.18-14.76.63-21.13-.07-5.59-.61-22.48,0-22.48,0a187.33,187.33,0,0,1,0-18.88c.55-6.9-.58-19.35,0-27.69.4-5.74,0-23,0-23s13.67-.38,18.9,0c6.11.44,20.36.14,24.75,0A1.27,1.27,0,0,1,926.49,238.77Z"/><path class="cls-1" d="M502.79,307.06s1.72-25.89,0-45.85c-.4-4.55,0-18.29,0-18.29H476.13v-5.47s9.67-.15,12.89,0c11.38.52,25.63-.74,34.13,0a137.76,137.76,0,0,0,15.34,0v5.47s-6.34.15-8.44,0a104.27,104.27,0,0,0-18.22,0s.91,34.14,0,52.42c-.14,2.93,0,11.72,0,11.72Z"/><path class="cls-1" d="M597.36,238.77v4.15s-12.62-.84-18.59,0c-4.29.59-17.31,0-17.31,0v25H591.7a.58.58,0,0,1,.58.58v3.4a.57.57,0,0,1-.58.58c-2.17,0-9.81-.12-12.62,0a166.71,166.71,0,0,1-17.62,0s-.4,11.24,0,15a92.53,92.53,0,0,1,0,14.18h34.91a1,1,0,0,1,1,1v3.14a1.42,1.42,0,0,1-1.34,1.42c-3.8.18-14.76.63-21.14-.07-5.58-.61-22.47,0-22.47,0a184.16,184.16,0,0,1,0-18.88c.54-6.9-.59-19.35,0-27.69.4-5.74,0-23,0-23s13.67-.38,18.89,0c6.11.44,20.36.14,24.75,0A1.28,1.28,0,0,1,597.36,238.77Z"/><path class="cls-1" d="M719,282a34.86,34.86,0,0,1-1-13.43,36.12,36.12,0,0,1,4.64-13.84,37.77,37.77,0,0,1,12-12.41,30.61,30.61,0,0,1,14.54-5.66,38,38,0,0,1,15,.52,35.92,35.92,0,0,1,12.43,5.67c3.63,2.61,8.19,4.29,10.29,7.35a31.16,31.16,0,0,1,3.51,7,39.37,39.37,0,0,1,2,8.43,37.24,37.24,0,0,1,0,9.26,35.47,35.47,0,0,1-2.58,9.53,38.08,38.08,0,0,1-5.55,9.16,41.3,41.3,0,0,1-9,8.17,37.27,37.27,0,0,1-15.94,6.63c-5.22.72-11.79,1.62-16.33.38a35.46,35.46,0,0,1-12.14-5.85,37.37,37.37,0,0,1-8.47-8.61C720.21,291.18,720.23,286.31,719,282Zm22,15a30.79,30.79,0,0,0,10.49,4.94c3.62.89,8.43,2.73,12.1,2.11a26.07,26.07,0,0,0,10.43-4.3,26.8,26.8,0,0,0,7.83-8.19c2-3.25,2.13-8.46,2.72-12.24a30.93,30.93,0,0,0-.51-11.76,36.84,36.84,0,0,0-14.43-21.09,30.82,30.82,0,0,0-10.77-4.75,28.31,28.31,0,0,0-11.23-.21,26.84,26.84,0,0,0-10.47,4.33,26.06,26.06,0,0,0-7.79,8.16c-1.91,3.19-4.81,7.8-5.29,11.5a30.79,30.79,0,0,0,.8,11.56c1,4,4.53,6.77,7.14,10.6A36.79,36.79,0,0,0,741.06,297Z"/><path class="cls-1" d="M940.33,289.46a19.6,19.6,0,0,0,.8,4.12,12.48,12.48,0,0,0,2.68,4.73c1.33,1.52,3.25,4.89,5.77,6a25.51,25.51,0,0,0,10,1.64c5.23,0,9.43-3.05,12.58-5s4.72-5.13,4.72-9.45a11.41,11.41,0,0,0-3-8.25,25.72,25.72,0,0,0-7.51-5.22,80,80,0,0,0-9.8-3.83c-3.51-1.12-6.78-4.54-9.79-6.13a24.44,24.44,0,0,1-7.51-6c-2-2.39-3-3.48-3-7.39a16.78,16.78,0,0,1,1.84-8,16.58,16.58,0,0,1,5-5.76,22.8,22.8,0,0,1,7.27-3.48,31.07,31.07,0,0,1,8.71-1.2,33.32,33.32,0,0,1,8.42,1.05,24.71,24.71,0,0,1,7.22,3.08,19.16,19.16,0,0,1,5.28,5,15.6,15.6,0,0,1,2.69,6.62H977a1.17,1.17,0,0,1-1.12-1,11,11,0,0,0-5.17-7.65,21,21,0,0,0-11-2.73c-2.59,0-12.79,0-14.92,5.57-.55,1.45-3.17,4.37-3.17,6a8.51,8.51,0,0,0,3.09,6.87,30.94,30.94,0,0,0,7.72,4.57c3.09,1.33,8.51,2.59,12.13,3.78a55.66,55.66,0,0,1,10.07,4.42,26.14,26.14,0,0,1,7.72,6.57,15.83,15.83,0,0,1,3.09,10.09c0,3-2.65,5.7-3.85,8.16s-3.13,4.27-5.08,6.26c-2.92,3-12.42,7.43-16.28,7.43A38.84,38.84,0,0,1,949.71,309c-3.19-.9-6-4.21-8.32-5.84a18.49,18.49,0,0,1-5.58-5.92,16.42,16.42,0,0,1-2.16-6.71,1,1,0,0,1,1-1Z"/><path class="cls-1" d="M696.62,237.23a1.12,1.12,0,0,1,1.12,1.07c.2,4.53.9,22.27,0,28.67-1.79,12,1.34,33.61,1.66,37.93a.72.72,0,0,1-.72.77h-9.84s.72-14.6,0-19.39c-1.67-11.11,0-37.54,0-37.54V237.91a.68.68,0,0,1,.68-.68Z"/><path class="cls-1" d="M372.7,237.46a1.09,1.09,0,0,1,1.1,1c1.16,15.72,2.77,41,3,42.82.3,2.41-.3,9.94-.6,11.75s-1.38,11.37-1.38,11.37c-1.28,1.66-5.14,1.71-9.13,1.51-2.4-.11-.88-10.62-.88-14.54s.09-15.06.09-18.67,0-17.78-.6-23.2c-.25-2.2-.24-6.55-.2-11.3a.76.76,0,0,1,.75-.75Z"/><path class="cls-1" d="M460.43,237.23a.77.77,0,0,1,.78.7c.36,3.6,1.94,20.14,1.65,26.09-.63,12.86-1.72,42.82-1.72,42.82h-.49a25.94,25.94,0,0,1-5.55-5.47c-2.79-4.13-10.59-10.56-14.2-14-4.73-4.52-14.45-13.35-18.64-18.37a157,157,0,0,0-15.87-15.64H406s.36,22.71,0,30.26c-.33,6.91,0,21.76,0,22h-4.5c0-.17-.19-6.55,0-8.68.74-8.1-.84-26.16,0-34.82.74-7.56,0-26.1,0-26.1H402s7.39,6.8,9.52,9.37c6.16,7.46,13,12.6,21.35,19.31,5.93,4.77,23.39,24.8,23.39,24.8h.4s.44-31.51,0-45.13c-.06-1.8,0-7.18,0-7.18Z"/><path class="cls-1" d="M634.12,237.23A28.1,28.1,0,0,1,645,239a19.21,19.21,0,0,1,6.79,4.5,15.6,15.6,0,0,1,3.52,5.81,18.49,18.49,0,0,1,1,5.77,19.8,19.8,0,0,1-1,6,17.18,17.18,0,0,1-3.1,5.72,17,17,0,0,1-5.48,4.4,19.83,19.83,0,0,1-8,2.06v.39l1,.49a7.12,7.12,0,0,1,2,1.46,23.89,23.89,0,0,1,2.16,2.84c.87,1.3,2.06,3.14,3.55,5.52s3.59,5.56,6.3,9.53c.9,1.37,1.77,2.6,2.62,3.67A17.26,17.26,0,0,0,659,300a9.68,9.68,0,0,0,6.55,2.3c.33,0,.65,0,1-.05s.65-.08,1-.15v2.81a1.31,1.31,0,0,1-.73,1.18,7,7,0,0,1-2,.6,24.31,24.31,0,0,1-3.52.2,14.45,14.45,0,0,1-5-.78,13.34,13.34,0,0,1-3.73-2.1c-1.1-.88-2.11-3.56-3-4.8s-.19-1-1.15-2.49l-7.76-11.44c-1.18-1.82-3.9-3.35-4.75-4.59a13.81,13.81,0,0,0-2.75-3A8.9,8.9,0,0,0,629.7,276a17.69,17.69,0,0,0-4.56-.49h-4.32v30.21h-8.9c-.15,1.45-.21-11.85,0-21.29.2-9.05-1.94-22.92,0-36.2.4-2.71,0-11,0-11Zm-13.3,33.83h10.11a16.48,16.48,0,0,0,6.91-1.37,15.72,15.72,0,0,0,5.06-3.57c1.37-1.47,4.12-3.09,4.81-4.89a15,15,0,0,0,1-5.33,14.54,14.54,0,0,0-1.13-5.76c-.76-1.76-3.57-3.28-5-4.55a15.78,15.78,0,0,0-5.16-3,19.66,19.66,0,0,0-6.72-1.08h-9.91s-1.71,11.07-1.71,14.76S620.82,271.06,620.82,271.06Z"/><path class="cls-1" d="M833.66,237.23A28.1,28.1,0,0,1,844.51,239a19.3,19.3,0,0,1,6.79,4.5,15.73,15.73,0,0,1,3.52,5.81,18.49,18.49,0,0,1,1,5.77,20.11,20.11,0,0,1-1,6,17.13,17.13,0,0,1-8.58,10.12,19.83,19.83,0,0,1-8,2.06v.39l1,.49a7.12,7.12,0,0,1,2,1.46,23,23,0,0,1,2.15,2.84q1.32,2,3.56,5.52t6.29,9.53c.91,1.37,1.78,2.6,2.63,3.67a16.83,16.83,0,0,0,2.63,2.74,9.68,9.68,0,0,0,6.55,2.3c.32,0,.65,0,1-.05s.65-.08,1-.15v2.81a1.3,1.3,0,0,1-.72,1.18,7,7,0,0,1-2,.6,24.31,24.31,0,0,1-3.52.2,14.45,14.45,0,0,1-5-.78A13.34,13.34,0,0,1,852,304c-1.1-.88-2.11-3.56-3-4.8s-.19-1-1.15-2.49L840,285.23c-1.18-1.82-3.9-3.35-4.75-4.59a13.81,13.81,0,0,0-2.75-3,8.9,8.9,0,0,0-3.29-1.66,17.69,17.69,0,0,0-4.56-.49h-4.32v30.21h-8.9c-.15,1.45-.21-11.85,0-21.29.2-9.05-1.94-22.92,0-36.2.4-2.71,0-11,0-11Zm-13.3,33.83h10.11a16.48,16.48,0,0,0,6.91-1.37,15.83,15.83,0,0,0,5.06-3.57c1.37-1.47,4.12-3.09,4.8-4.89a14.76,14.76,0,0,0,1-5.33,14.54,14.54,0,0,0-1.13-5.76c-.76-1.76-3.57-3.28-5-4.55a15.63,15.63,0,0,0-5.15-3,19.66,19.66,0,0,0-6.72-1.08h-9.91s-1.71,11.07-1.71,14.76S820.36,271.06,820.36,271.06Z"/></svg>